Format : AVI
Format/Info : Audio Video Interleave
File size : 1.10 GiB
Duration : 1h 43mn
Overall bit rate : 1 524 Kbps
Writing application : VirtualDubMod 1.5.10.3 | www.virtualdub-fr.org || (build 2550/release)
Writing library : VirtualDub build 32842/release

Video
ID : 0
Format : MPEG-4 Visual
Format profile : Advanced Simple@L5
Format settings, BVOP : 2
Format settings, QPel : No
Format settings, GMC : No warppoints
Format settings, Matrix : Default (H.263)
Muxing mode : Packed bitstream
Codec ID : XVID
Codec ID/Hint : XviD
Duration : 1h 43mn
Bit rate : 1 386 Kbps
Width : 672 pixels
Height : 282 pixels
Display aspect ratio : 2.40:1
Frame rate : 25.000 fps
Color space : YUV
Chroma subsampling : 4:2:0
Bit depth : 8 bits
Scan type : Progressive
Compression mode : Lossy
Bits/(Pixel*Frame) : 0.293
Stream size : 1 023 MiB (91%)
Writing library : XviD 64

Audio
ID : 1
Format : MPEG Audio
Format version : Version 1
Format profile : Layer 3
Mode : Joint stereo
Mode extension : MS Stereo
Codec ID : 55
Codec ID/Hint : MP3
Duration : 1h 43mn
Bit rate mode : Constant
Bit rate : 128 Kbps
Channel(s) : 2 channels
Sampling rate : 44.1 KHz
Compression mode : Lossy
Stream size : 94.5 MiB (8%)
Alignment : Split accross interleaves
Interleave, duration : 40 ms (1.00 video frame)
Interleave, preload duration : 500 ms
Writing library : LAME3.98r
Encoding settings : -m j -V 4 -q 2 -lowpass 17 -b 128






 
http://www.imdb.com/title/tt0816462/









Users: (754 votes) 34 reviews | Critics: 37 reviews Metascore: 37/100 (based on 28 reviews from Metacritic.com)


The tale of Conan the Cimmerian and his adventures across the continent of Hyboria on a quest to avenge the murder of his father and the slaughter of his village.

Director: Marcus Nispel
Writers: Thomas Dean Donnelly, Joshua Oppenheimer, and 2 more credits »
Stars: Jason Momoa, Ron Perlman and Rose McGowan






















Source Used


Video ....Konan-varvar.2011.D.CAMRip.PROPER......Thanks


Audio ....REVELATION ...............................Thanks



Sample included from a dark scene so check it out 1st

Basically just Deinterlaced ,rbg colours, slight saturation ,slight levels filter,slightest smoother then muxed the line audio back to the vid




Enjoy





Greetz to IMAGiNE,Flawl3ss,DiLLoN,BDK,NOiR,TOXiC,THC,Ez,Rx,Boobyblue,TaRiQ786


